solid OpenSCAD_Model
  facet normal -2.22045e-016 0 1
    outer loop
      vertex -20 5.75 2.25
      vertex -20 -5.75 2.25
      vertex 20 -5.75 2.25
    endloop
  endfacet
  facet normal -2.22045e-016 0 1
    outer loop
      vertex 20 5.75 2.25
      vertex -20 5.75 2.25
      vertex 20 -5.75 2.25
    endloop
  endfacet
  facet normal 0 -1 0
    outer loop
      vertex 20 -5.75 2.25
      vertex -20 -5.75 2.25
      vertex -20 -5.75 1.51879
    endloop
  endfacet
  facet normal 0 -1 0
    outer loop
      vertex 20 -5.75 1.51879
      vertex 20 -5.75 2.25
      vertex -20 -5.75 1.51879
    endloop
  endfacet
  facet normal -1 0 -1.77321e-016
    outer loop
      vertex -20 -5.75 2.25
      vertex -20 5.75 2.25
      vertex -20 -5.75 1.51879
    endloop
  endfacet
  facet normal -1 0 -1.77321e-016
    outer loop
      vertex -20 -5.75 1.51879
      vertex -20 5.75 2.25
      vertex -20 5.75 1.51879
    endloop
  endfacet
  facet normal -1 0 -1.77321e-016
    outer loop
      vertex -20 -5.75 1.51879
      vertex -20 5.75 1.51879
      vertex -20 5.57422 1.46167
    endloop
  endfacet
  facet normal -1 0 -1.77321e-016
    outer loop
      vertex -20 -5.75 1.51879
      vertex -20 5.57422 1.46167
      vertex -20 5.28454 1.29443
    endloop
  endfacet
  facet normal -1 0 -1.77321e-016
    outer loop
      vertex -20 5.28454 1.29443
      vertex -20 5.03597 1.07061
      vertex -20 -5.75 1.51879
    endloop
  endfacet
  facet normal -1 0 -1.77321e-016
    outer loop
      vertex -20 5.03597 1.07061
      vertex -20 4.83936 0.8
      vertex -20 -5.75 1.51879
    endloop
  endfacet
  facet normal -1 0 -1.77321e-016
    outer loop
      vertex -20 4.83936 0.8
      vertex -20 4.70331 0.494427
      vertex -20 -5.75 1.51879
    endloop
  endfacet
  facet normal -1 0 -1.77321e-016
    outer loop
      vertex -20 4.70331 0.494427
      vertex -20 4.63376 0.167246
      vertex -20 -5.75 1.51879
    endloop
  endfacet
  facet normal -1 0 -1.77321e-016
    outer loop
      vertex -20 4.63376 0.167246
      vertex -20 4.63376 -0.167246
      vertex -20 -5.75 1.51879
    endloop
  endfacet
  facet normal -1 0 -1.77321e-016
    outer loop
      vertex -20 4.63376 -0.167246
      vertex -20 4.70331 -0.494427
      vertex -20 -5.75 1.51879
    endloop
  endfacet
  facet normal -1 0 -1.77321e-016
    outer loop
      vertex -20 4.70331 -0.494427
      vertex -20 4.83936 -0.8
      vertex -20 -5.75 1.51879
    endloop
  endfacet
  facet normal -1 0 -1.77321e-016
    outer loop
      vertex -20 4.83936 -0.8
      vertex -20 5.03597 -1.07061
      vertex -20 -5.75 1.51879
    endloop
  endfacet
  facet normal -1 0 -1.77321e-016
    outer loop
      vertex -20 5.03597 -1.07061
      vertex -20 5.28454 -1.29443
      vertex -20 -5.75 1.51879
    endloop
  endfacet
  facet normal -1 0 -1.77321e-016
    outer loop
      vertex -20 5.28454 -1.29443
      vertex -20 5.57422 -1.46167
      vertex -20 -5.75 1.51879
    endloop
  endfacet
  facet normal -1 0 -1.77321e-016
    outer loop
      vertex -20 5.57422 -1.46167
      vertex -20 5.75 -1.51879
      vertex -20 -5.75 1.51879
    endloop
  endfacet
  facet normal -1 0 -1.77321e-016
    outer loop
      vertex -20 -5.57422 1.46167
      vertex -20 5.75 -1.51879
      vertex -20 5.75 -2.25
    endloop
  endfacet
  facet normal -1 0 -1.77321e-016
    outer loop
      vertex -20 -5.75 -1.51879
      vertex -20 5.75 -2.25
      vertex -20 -5.75 -2.25
    endloop
  endfacet
  facet normal -1 0 -1.77321e-016
    outer loop
      vertex -20 -5.57422 -1.46167
      vertex -20 5.75 -2.25
      vertex -20 -5.75 -1.51879
    endloop
  endfacet
  facet normal -1 0 -1.77321e-016
    outer loop
      vertex -20 -5.28454 -1.29443
      vertex -20 5.75 -2.25
      vertex -20 -5.57422 -1.46167
    endloop
  endfacet
  facet normal -1 0 -1.77321e-016
    outer loop
      vertex -20 -5.03597 -1.07061
      vertex -20 5.75 -2.25
      vertex -20 -5.28454 -1.29443
    endloop
  endfacet
  facet normal -1 0 -1.77321e-016
    outer loop
      vertex -20 -4.83936 -0.8
      vertex -20 5.75 -2.25
      vertex -20 -5.03597 -1.07061
    endloop
  endfacet
  facet normal -1 0 -1.77321e-016
    outer loop
      vertex -20 -4.70331 -0.494427
      vertex -20 5.75 -2.25
      vertex -20 -4.83936 -0.8
    endloop
  endfacet
  facet normal -1 0 -1.77321e-016
    outer loop
      vertex -20 -4.63376 -0.167246
      vertex -20 5.75 -2.25
      vertex -20 -4.70331 -0.494427
    endloop
  endfacet
  facet normal -1 0 -1.77321e-016
    outer loop
      vertex -20 -4.63376 0.167246
      vertex -20 5.75 -2.25
      vertex -20 -4.63376 -0.167246
    endloop
  endfacet
  facet normal -1 0 -1.77321e-016
    outer loop
      vertex -20 -4.70331 0.494427
      vertex -20 5.75 -2.25
      vertex -20 -4.63376 0.167246
    endloop
  endfacet
  facet normal -1 0 -1.77321e-016
    outer loop
      vertex -20 -4.83936 0.8
      vertex -20 5.75 -2.25
      vertex -20 -4.70331 0.494427
    endloop
  endfacet
  facet normal -1 0 -1.77321e-016
    outer loop
      vertex -20 -5.03597 1.07061
      vertex -20 5.75 -2.25
      vertex -20 -4.83936 0.8
    endloop
  endfacet
  facet normal -1 0 -1.77321e-016
    outer loop
      vertex -20 -5.28454 1.29443
      vertex -20 5.75 -2.25
      vertex -20 -5.03597 1.07061
    endloop
  endfacet
  facet normal -1 0 -1.77321e-016
    outer loop
      vertex -20 -5.75 1.51879
      vertex -20 5.75 -1.51879
      vertex -20 -5.57422 1.46167
    endloop
  endfacet
  facet normal -1 0 -1.77321e-016
    outer loop
      vertex -20 -5.57422 1.46167
      vertex -20 5.75 -2.25
      vertex -20 -5.28454 1.29443
    endloop
  endfacet
  facet normal 0 1 0
    outer loop
      vertex -20 5.75 2.25
      vertex 20 5.75 2.25
      vertex -20 5.75 1.51879
    endloop
  endfacet
  facet normal 0 1 0
    outer loop
      vertex -20 5.75 1.51879
      vertex 20 5.75 2.25
      vertex 20 5.75 1.51879
    endloop
  endfacet
  facet normal 1 0 1.77321e-016
    outer loop
      vertex 20 5.75 2.25
      vertex 20 -5.75 2.25
      vertex 20 -5.75 1.51879
    endloop
  endfacet
  facet normal 1 0 1.77321e-016
    outer loop
      vertex 20 -5.28454 1.29443
      vertex 20 5.75 2.25
      vertex 20 -5.57422 1.46167
    endloop
  endfacet
  facet normal 1 0 1.77321e-016
    outer loop
      vertex 20 -5.57422 1.46167
      vertex 20 5.75 2.25
      vertex 20 -5.75 1.51879
    endloop
  endfacet
  facet normal 1 0 1.77321e-016
    outer loop
      vertex 20 -5.03597 1.07061
      vertex 20 5.75 2.25
      vertex 20 -5.28454 1.29443
    endloop
  endfacet
  facet normal 1 0 1.77321e-016
    outer loop
      vertex 20 -4.83936 0.8
      vertex 20 5.75 2.25
      vertex 20 -5.03597 1.07061
    endloop
  endfacet
  facet normal 1 0 1.77321e-016
    outer loop
      vertex 20 -4.70331 0.494427
      vertex 20 5.75 2.25
      vertex 20 -4.83936 0.8
    endloop
  endfacet
  facet normal 1 0 1.77321e-016
    outer loop
      vertex 20 -4.63376 0.167246
      vertex 20 5.75 2.25
      vertex 20 -4.70331 0.494427
    endloop
  endfacet
  facet normal 1 0 1.77321e-016
    outer loop
      vertex 20 -4.63376 -0.167246
      vertex 20 5.75 2.25
      vertex 20 -4.63376 0.167246
    endloop
  endfacet
  facet normal 1 0 1.77321e-016
    outer loop
      vertex 20 -4.70331 -0.494427
      vertex 20 5.75 2.25
      vertex 20 -4.63376 -0.167246
    endloop
  endfacet
  facet normal 1 0 1.77321e-016
    outer loop
      vertex 20 -4.83936 -0.8
      vertex 20 5.75 2.25
      vertex 20 -4.70331 -0.494427
    endloop
  endfacet
  facet normal 1 0 1.77321e-016
    outer loop
      vertex 20 -5.03597 -1.07061
      vertex 20 5.75 2.25
      vertex 20 -4.83936 -0.8
    endloop
  endfacet
  facet normal 1 0 1.77321e-016
    outer loop
      vertex 20 -5.28454 -1.29443
      vertex 20 5.75 2.25
      vertex 20 -5.03597 -1.07061
    endloop
  endfacet
  facet normal 1 0 1.77321e-016
    outer loop
      vertex 20 -5.57422 -1.46167
      vertex 20 5.75 2.25
      vertex 20 -5.28454 -1.29443
    endloop
  endfacet
  facet normal 1 0 1.77321e-016
    outer loop
      vertex 20 -5.75 -2.25
      vertex 20 5.75 2.25
      vertex 20 -5.57422 -1.46167
    endloop
  endfacet
  facet normal 1 0 1.77321e-016
    outer loop
      vertex 20 -5.75 -2.25
      vertex 20 -5.57422 -1.46167
      vertex 20 -5.75 -1.51879
    endloop
  endfacet
  facet normal 1 0 1.77321e-016
    outer loop
      vertex 20 4.83936 0.8
      vertex 20 5.75 2.25
      vertex 20 -5.75 -2.25
    endloop
  endfacet
  facet normal 1 0 1.77321e-016
    outer loop
      vertex 20 5.75 -2.25
      vertex 20 5.75 -1.51879
      vertex 20 -5.75 -2.25
    endloop
  endfacet
  facet normal 1 0 1.77321e-016
    outer loop
      vertex 20 5.75 -1.51879
      vertex 20 5.57422 -1.46167
      vertex 20 -5.75 -2.25
    endloop
  endfacet
  facet normal 1 0 1.77321e-016
    outer loop
      vertex 20 5.57422 -1.46167
      vertex 20 5.28454 -1.29443
      vertex 20 -5.75 -2.25
    endloop
  endfacet
  facet normal 1 0 1.77321e-016
    outer loop
      vertex 20 5.28454 -1.29443
      vertex 20 5.03597 -1.07061
      vertex 20 -5.75 -2.25
    endloop
  endfacet
  facet normal 1 0 1.77321e-016
    outer loop
      vertex 20 5.03597 -1.07061
      vertex 20 4.83936 -0.8
      vertex 20 -5.75 -2.25
    endloop
  endfacet
  facet normal 1 0 1.77321e-016
    outer loop
      vertex 20 4.83936 -0.8
      vertex 20 4.70331 -0.494427
      vertex 20 -5.75 -2.25
    endloop
  endfacet
  facet normal 1 0 1.77321e-016
    outer loop
      vertex 20 4.70331 -0.494427
      vertex 20 4.63376 -0.167246
      vertex 20 -5.75 -2.25
    endloop
  endfacet
  facet normal 1 0 1.77321e-016
    outer loop
      vertex 20 4.63376 -0.167246
      vertex 20 4.63376 0.167246
      vertex 20 -5.75 -2.25
    endloop
  endfacet
  facet normal 1 0 1.77321e-016
    outer loop
      vertex 20 4.63376 0.167246
      vertex 20 4.70331 0.494427
      vertex 20 -5.75 -2.25
    endloop
  endfacet
  facet normal 1 0 1.77321e-016
    outer loop
      vertex 20 4.70331 0.494427
      vertex 20 4.83936 0.8
      vertex 20 -5.75 -2.25
    endloop
  endfacet
  facet normal 1 0 1.77321e-016
    outer loop
      vertex 20 5.03597 1.07061
      vertex 20 5.75 2.25
      vertex 20 4.83936 0.8
    endloop
  endfacet
  facet normal 1 0 1.77321e-016
    outer loop
      vertex 20 5.57422 1.46167
      vertex 20 5.75 1.51879
      vertex 20 5.75 2.25
    endloop
  endfacet
  facet normal 1 0 1.77321e-016
    outer loop
      vertex 20 5.03597 1.07061
      vertex 20 5.28454 1.29443
      vertex 20 5.75 2.25
    endloop
  endfacet
  facet normal 1 0 1.77321e-016
    outer loop
      vertex 20 5.28454 1.29443
      vertex 20 5.57422 1.46167
      vertex 20 5.75 2.25
    endloop
  endfacet
  facet normal 2.11177e-016 -0.309016 -0.951057
    outer loop
      vertex 20 -5.57422 1.46167
      vertex 20 -5.75 1.51879
      vertex -20 -5.57422 1.46167
    endloop
  endfacet
  facet normal 2.11177e-016 -0.309016 -0.951057
    outer loop
      vertex -20 -5.57422 1.46167
      vertex 20 -5.75 1.51879
      vertex -20 -5.75 1.51879
    endloop
  endfacet
  facet normal 1.92296e-016 -0.500002 -0.866024
    outer loop
      vertex 20 -5.28454 1.29443
      vertex 20 -5.57422 1.46167
      vertex -20 -5.28454 1.29443
    endloop
  endfacet
  facet normal 1.92296e-016 -0.500002 -0.866024
    outer loop
      vertex -20 -5.28454 1.29443
      vertex 20 -5.57422 1.46167
      vertex -20 -5.57422 1.46167
    endloop
  endfacet
  facet normal 1.65012e-016 -0.669129 -0.743146
    outer loop
      vertex 20 -5.03597 1.07061
      vertex 20 -5.28454 1.29443
      vertex -20 -5.03597 1.07061
    endloop
  endfacet
  facet normal 1.65012e-016 -0.669129 -0.743146
    outer loop
      vertex -20 -5.03597 1.07061
      vertex 20 -5.28454 1.29443
      vertex -20 -5.28454 1.29443
    endloop
  endfacet
  facet normal 1.30515e-016 -0.809017 -0.587785
    outer loop
      vertex -20 -4.83936 0.8
      vertex 20 -4.83936 0.8
      vertex 20 -5.03597 1.07061
    endloop
  endfacet
  facet normal 1.30515e-016 -0.809017 -0.587785
    outer loop
      vertex -20 -5.03597 1.07061
      vertex -20 -4.83936 0.8
      vertex 20 -5.03597 1.07061
    endloop
  endfacet
  facet normal 9.03132e-017 -0.913546 -0.406734
    outer loop
      vertex -20 -4.70331 0.494427
      vertex 20 -4.70331 0.494427
      vertex 20 -4.83936 0.8
    endloop
  endfacet
  facet normal 9.03132e-017 -0.913546 -0.406734
    outer loop
      vertex -20 -4.83936 0.8
      vertex -20 -4.70331 0.494427
      vertex 20 -4.83936 0.8
    endloop
  endfacet
  facet normal 4.6166e-017 -0.978147 -0.207913
    outer loop
      vertex -20 -4.63376 0.167246
      vertex 20 -4.63376 0.167246
      vertex 20 -4.70331 0.494427
    endloop
  endfacet
  facet normal 4.6166e-017 -0.978147 -0.207913
    outer loop
      vertex -20 -4.70331 0.494427
      vertex -20 -4.63376 0.167246
      vertex 20 -4.70331 0.494427
    endloop
  endfacet
  facet normal 0 -1 0
    outer loop
      vertex -20 -4.63376 -0.167246
      vertex 20 -4.63376 -0.167246
      vertex 20 -4.63376 0.167246
    endloop
  endfacet
  facet normal 0 -1 0
    outer loop
      vertex -20 -4.63376 0.167246
      vertex -20 -4.63376 -0.167246
      vertex 20 -4.63376 0.167246
    endloop
  endfacet
  facet normal -4.6166e-017 -0.978147 0.207913
    outer loop
      vertex -20 -4.70331 -0.494427
      vertex 20 -4.70331 -0.494427
      vertex 20 -4.63376 -0.167246
    endloop
  endfacet
  facet normal -4.6166e-017 -0.978147 0.207913
    outer loop
      vertex -20 -4.63376 -0.167246
      vertex -20 -4.70331 -0.494427
      vertex 20 -4.63376 -0.167246
    endloop
  endfacet
  facet normal -9.03132e-017 -0.913546 0.406734
    outer loop
      vertex -20 -4.83936 -0.8
      vertex 20 -4.83936 -0.8
      vertex 20 -4.70331 -0.494427
    endloop
  endfacet
  facet normal -9.03132e-017 -0.913546 0.406734
    outer loop
      vertex -20 -4.70331 -0.494427
      vertex -20 -4.83936 -0.8
      vertex 20 -4.70331 -0.494427
    endloop
  endfacet
  facet normal -1.30515e-016 -0.809017 0.587785
    outer loop
      vertex -20 -5.03597 -1.07061
      vertex 20 -5.03597 -1.07061
      vertex 20 -4.83936 -0.8
    endloop
  endfacet
  facet normal -1.30515e-016 -0.809017 0.587785
    outer loop
      vertex -20 -4.83936 -0.8
      vertex -20 -5.03597 -1.07061
      vertex 20 -4.83936 -0.8
    endloop
  endfacet
  facet normal -1.65012e-016 -0.669129 0.743146
    outer loop
      vertex -20 -5.28454 -1.29443
      vertex 20 -5.28454 -1.29443
      vertex 20 -5.03597 -1.07061
    endloop
  endfacet
  facet normal -1.65012e-016 -0.669129 0.743146
    outer loop
      vertex -20 -5.03597 -1.07061
      vertex -20 -5.28454 -1.29443
      vertex 20 -5.03597 -1.07061
    endloop
  endfacet
  facet normal -1.92296e-016 -0.500002 0.866024
    outer loop
      vertex -20 -5.57422 -1.46167
      vertex 20 -5.57422 -1.46167
      vertex 20 -5.28454 -1.29443
    endloop
  endfacet
  facet normal -1.92296e-016 -0.500002 0.866024
    outer loop
      vertex -20 -5.28454 -1.29443
      vertex -20 -5.57422 -1.46167
      vertex 20 -5.28454 -1.29443
    endloop
  endfacet
  facet normal -2.11177e-016 -0.309016 0.951057
    outer loop
      vertex -20 -5.75 -1.51879
      vertex 20 -5.75 -1.51879
      vertex 20 -5.57422 -1.46167
    endloop
  endfacet
  facet normal -2.11177e-016 -0.309016 0.951057
    outer loop
      vertex -20 -5.57422 -1.46167
      vertex -20 -5.75 -1.51879
      vertex 20 -5.57422 -1.46167
    endloop
  endfacet
  facet normal 0 -1 0
    outer loop
      vertex 20 -5.75 -1.51879
      vertex -20 -5.75 -1.51879
      vertex -20 -5.75 -2.25
    endloop
  endfacet
  facet normal 0 -1 0
    outer loop
      vertex 20 -5.75 -2.25
      vertex 20 -5.75 -1.51879
      vertex -20 -5.75 -2.25
    endloop
  endfacet
  facet normal 2.22045e-016 0 -1
    outer loop
      vertex -20 -5.75 -2.25
      vertex -20 5.75 -2.25
      vertex 20 -5.75 -2.25
    endloop
  endfacet
  facet normal 2.22045e-016 0 -1
    outer loop
      vertex 20 -5.75 -2.25
      vertex -20 5.75 -2.25
      vertex 20 5.75 -2.25
    endloop
  endfacet
  facet normal 0 1 0
    outer loop
      vertex -20 5.75 -1.51879
      vertex 20 5.75 -1.51879
      vertex -20 5.75 -2.25
    endloop
  endfacet
  facet normal 0 1 0
    outer loop
      vertex -20 5.75 -2.25
      vertex 20 5.75 -1.51879
      vertex 20 5.75 -2.25
    endloop
  endfacet
  facet normal -2.11177e-016 0.309016 0.951057
    outer loop
      vertex 20 5.57422 -1.46167
      vertex 20 5.75 -1.51879
      vertex -20 5.75 -1.51879
    endloop
  endfacet
  facet normal -2.11177e-016 0.309016 0.951057
    outer loop
      vertex -20 5.57422 -1.46167
      vertex 20 5.57422 -1.46167
      vertex -20 5.75 -1.51879
    endloop
  endfacet
  facet normal -1.92296e-016 0.500002 0.866024
    outer loop
      vertex 20 5.28454 -1.29443
      vertex 20 5.57422 -1.46167
      vertex -20 5.57422 -1.46167
    endloop
  endfacet
  facet normal -1.92296e-016 0.500002 0.866024
    outer loop
      vertex -20 5.28454 -1.29443
      vertex 20 5.28454 -1.29443
      vertex -20 5.57422 -1.46167
    endloop
  endfacet
  facet normal -1.65012e-016 0.669129 0.743146
    outer loop
      vertex 20 5.03597 -1.07061
      vertex 20 5.28454 -1.29443
      vertex -20 5.28454 -1.29443
    endloop
  endfacet
  facet normal -1.65012e-016 0.669129 0.743146
    outer loop
      vertex -20 5.03597 -1.07061
      vertex 20 5.03597 -1.07061
      vertex -20 5.28454 -1.29443
    endloop
  endfacet
  facet normal -1.30515e-016 0.809017 0.587785
    outer loop
      vertex 20 5.03597 -1.07061
      vertex -20 5.03597 -1.07061
      vertex 20 4.83936 -0.8
    endloop
  endfacet
  facet normal -1.30515e-016 0.809017 0.587785
    outer loop
      vertex 20 4.83936 -0.8
      vertex -20 5.03597 -1.07061
      vertex -20 4.83936 -0.8
    endloop
  endfacet
  facet normal -9.03132e-017 0.913546 0.406734
    outer loop
      vertex 20 4.83936 -0.8
      vertex -20 4.83936 -0.8
      vertex 20 4.70331 -0.494427
    endloop
  endfacet
  facet normal -9.03132e-017 0.913546 0.406734
    outer loop
      vertex 20 4.70331 -0.494427
      vertex -20 4.83936 -0.8
      vertex -20 4.70331 -0.494427
    endloop
  endfacet
  facet normal -4.6166e-017 0.978147 0.207913
    outer loop
      vertex 20 4.70331 -0.494427
      vertex -20 4.70331 -0.494427
      vertex 20 4.63376 -0.167246
    endloop
  endfacet
  facet normal -4.6166e-017 0.978147 0.207913
    outer loop
      vertex 20 4.63376 -0.167246
      vertex -20 4.70331 -0.494427
      vertex -20 4.63376 -0.167246
    endloop
  endfacet
  facet normal 0 1 0
    outer loop
      vertex 20 4.63376 -0.167246
      vertex -20 4.63376 -0.167246
      vertex 20 4.63376 0.167246
    endloop
  endfacet
  facet normal 0 1 0
    outer loop
      vertex 20 4.63376 0.167246
      vertex -20 4.63376 -0.167246
      vertex -20 4.63376 0.167246
    endloop
  endfacet
  facet normal 4.6166e-017 0.978147 -0.207913
    outer loop
      vertex 20 4.63376 0.167246
      vertex -20 4.63376 0.167246
      vertex 20 4.70331 0.494427
    endloop
  endfacet
  facet normal 4.6166e-017 0.978147 -0.207913
    outer loop
      vertex 20 4.70331 0.494427
      vertex -20 4.63376 0.167246
      vertex -20 4.70331 0.494427
    endloop
  endfacet
  facet normal 9.03132e-017 0.913546 -0.406734
    outer loop
      vertex 20 4.70331 0.494427
      vertex -20 4.70331 0.494427
      vertex 20 4.83936 0.8
    endloop
  endfacet
  facet normal 9.03132e-017 0.913546 -0.406734
    outer loop
      vertex 20 4.83936 0.8
      vertex -20 4.70331 0.494427
      vertex -20 4.83936 0.8
    endloop
  endfacet
  facet normal 1.30515e-016 0.809017 -0.587785
    outer loop
      vertex 20 4.83936 0.8
      vertex -20 4.83936 0.8
      vertex 20 5.03597 1.07061
    endloop
  endfacet
  facet normal 1.30515e-016 0.809017 -0.587785
    outer loop
      vertex 20 5.03597 1.07061
      vertex -20 4.83936 0.8
      vertex -20 5.03597 1.07061
    endloop
  endfacet
  facet normal 1.65012e-016 0.669129 -0.743146
    outer loop
      vertex 20 5.03597 1.07061
      vertex -20 5.03597 1.07061
      vertex 20 5.28454 1.29443
    endloop
  endfacet
  facet normal 1.65012e-016 0.669129 -0.743146
    outer loop
      vertex 20 5.28454 1.29443
      vertex -20 5.03597 1.07061
      vertex -20 5.28454 1.29443
    endloop
  endfacet
  facet normal 1.92296e-016 0.500002 -0.866024
    outer loop
      vertex 20 5.28454 1.29443
      vertex -20 5.28454 1.29443
      vertex 20 5.57422 1.46167
    endloop
  endfacet
  facet normal 1.92296e-016 0.500002 -0.866024
    outer loop
      vertex 20 5.57422 1.46167
      vertex -20 5.28454 1.29443
      vertex -20 5.57422 1.46167
    endloop
  endfacet
  facet normal 2.11177e-016 0.309016 -0.951057
    outer loop
      vertex 20 5.57422 1.46167
      vertex -20 5.57422 1.46167
      vertex 20 5.75 1.51879
    endloop
  endfacet
  facet normal 2.11177e-016 0.309016 -0.951057
    outer loop
      vertex 20 5.75 1.51879
      vertex -20 5.57422 1.46167
      vertex -20 5.75 1.51879
    endloop
  endfacet
endsolid OpenSCAD_Model
